Ripper ...........: IMAGiNE                                        
IMDB Rating.......:7.1/10                             
Video Codec.......: XVID                                         
Release Date......:02/03/10
Audio Codec.......:AC3                                           
Theatre Date......:26/02/10
Audio Bitrate.....:192                                              Runtime.......:1h 34mn
Subtitles.........:NIL                                                 Language..........:ENGLISH
Resolution...... 528 x 288                                      
IMDb URL..........:http://www.imdb.com/title/tt0455407/


DETAILS:

Video
ID                               : 0
Format                           : MPEG-4 Visual
Format profile                   : Advanced Simple@L5
Format settings, BVOP            : Yes
Format settings, QPel            : No
Format settings, GMC             : No warppoints
Format settings, Matrix          : Default (MPEG)
Muxing mode                      : Packed bitstream
Codec ID                         : XVID
Codec ID/Hint                    : XviD
Duration                         : 1h 34mn
Bit rate                         : 1 590 Kbps
Width                            : 528 pixels
Height                           : 288 pixels
Display aspect ratio             : 16:9
Frame rate                       : 23.976 fps
Resolution                       : 8 bits
Colorimetry                      : 4:2:0
Scan type                        : Progressive
Bits/(Pixel*Frame)               : 0.436
Stream size                      : 1.05 GiB (89%)
Writing library                  : XviD 1.2.1 (UTC 2008-12-04)

Audio
ID                               : 1
Format                           : AC-3
Format/Info                      : Audio Coding 3
Codec ID                         : 2000
Duration                         : 1h 34mn
Bit rate mode                    : Constant
Bit rate                         : 192 Kbps
Channel(s)                       : 2 channels
Channel positions                : L R
Sampling rate                    : 48.0 KHz
Stream size                      : 130 MiB (11%)
Alignment                        : Aligned on interleaves
Interleave, duration             : 42 ms (1.00 video frame)
Interleave, preload duration     : 512 ms

NOTES:

IMAGiNE bringing you another release.....
Ok couple of things.....first many thanks to buttaflyy for the dvdr :)
Secondly make sure you read these notes!!
Quality is crap...what can we say.The perspective is shot to pieces,overbright,cropped to hell etc.....
Audio is ok for cam.
Work not alot due to the fact it wasn't worth it really......messed with the brightness,colours etc....
Audio is untouched.
Reason for releasing this .....well wasn't going to but considering we see no other source out there we thought
we'd put this out for anyone that ones it.

Enjoy.

GREETS:

FLAWL3SS,ViSiON,DEViSE,FUSiON,STG,SecretMyth,BirdFlu,ELEKTRI4KA
And to all the other p2p grps past and present 

Special thanks to Python-Lair for the server :)
And special thanks to supreme-speeds.com for the ripbox :)

Looking for these,syncers,cammer,silver supplier.....Have anything to offer????......
Contact us imaginegroup@hushmail.com